<svg width="31" height="31" viewBox="0 0 31 31" fill="none" xmlns="http://www.w3.org/2000/svg">
<path fill-rule="evenodd" clip-rule="evenodd" d="M15.4952 3.44305C16.7239 3.44324 17.7684 3.93624 18.8252 4.71732C19.8552 5.47863 21.0118 6.6025 22.4508 7.99641L27.2096 12.6071L27.2869 12.6891C27.6456 13.1152 27.634 13.7554 27.2429 14.168C26.8511 14.5808 26.2175 14.6196 25.7809 14.2748L25.6967 14.2007L25.3552 13.8695L25.3552 16.7245C25.3552 18.7804 25.3574 20.4342 25.1849 21.7306C25.0082 23.0586 24.6298 24.1773 23.7513 25.0651C22.8726 25.9528 21.7653 26.3347 20.4506 26.5133C19.1673 26.6876 17.5304 26.6853 15.4952 26.6853C13.4599 26.6853 11.8231 26.6876 10.5397 26.5133C9.30709 26.3459 8.25687 26.0003 7.40632 25.2262L7.23898 25.0651C6.36022 24.1772 5.98215 23.0588 5.80538 21.7306C5.63291 20.4341 5.63511 18.7804 5.63511 16.7245L5.63511 13.8685L5.29261 14.2007C4.85693 14.6227 4.16532 14.608 3.74745 14.168C3.32973 13.7279 3.34413 13.0292 3.77975 12.6071L8.5395 7.99641L9.56797 7.00289C10.5485 6.06328 11.3926 5.28825 12.1651 4.71732C13.2219 3.93634 14.2663 3.44305 15.4952 3.44305ZM15.866 12.6516C13.7147 12.6516 11.9704 14.4138 11.9704 16.5871C11.9704 18.7604 13.7147 20.5226 15.866 20.5226C18.0172 20.5224 19.7607 18.7603 19.7607 16.5871C19.7607 14.4139 18.0172 12.6517 15.866 12.6516Z" fill="#141B34"/>
</svg>
