<svg width="31" height="31" viewBox="0 0 31 31" fill="none" xmlns="http://www.w3.org/2000/svg">
<path d="M6.27705 6.277C6.62943 5.92456 7.04777 5.64499 7.50818 5.45426C7.9686 5.26352 8.46208 5.16534 8.96044 5.16534C9.4588 5.16534 9.95228 5.26352 10.4127 5.45426C10.8731 5.64499 11.2915 5.92456 11.6438 6.277L11.8292 6.46241C11.9309 6.56404 12.0687 6.62114 12.2125 6.62114C12.3562 6.62114 12.4941 6.56404 12.5958 6.46241L12.7822 6.27808C13.3241 5.73615 14.0174 5.37099 14.7708 5.23068C15.5242 5.09036 16.3024 5.18146 17.003 5.49198C16.7037 6.25129 16.55 7.06014 16.5498 7.8763C16.5498 8.84348 16.7612 9.76077 17.1407 10.5859L12.7551 10.5859C12.18 10.5859 11.6285 10.8144 11.2218 11.2211C10.8152 11.6277 10.5867 12.1793 10.5867 12.7545L10.5867 18.1758C10.5867 18.4606 10.6428 18.7426 10.7518 19.0057C10.8608 19.2688 11.0205 19.5079 11.2218 19.7092C11.4232 19.9106 11.6622 20.0703 11.9253 20.1793C12.1884 20.2883 12.4704 20.3444 12.7551 20.3444L18.1761 20.3444C18.7512 20.3444 19.3027 20.1159 19.7094 19.7092C20.1161 19.3025 20.3445 18.751 20.3445 18.1758L20.3445 13.7889C21.1403 14.155 22.002 14.356 22.8776 14.3799C23.7532 14.4037 24.6246 14.2499 25.4391 13.9276C25.7496 14.6283 25.8407 15.4066 25.7004 16.16C25.5601 16.9135 25.195 17.6068 24.6531 18.1487L24.4688 18.3352C24.3672 18.4369 24.3101 18.5747 24.3101 18.7185C24.3101 18.8623 24.3672 19.0001 24.4688 19.1018L24.6531 19.2872C25.3531 20.0012 25.743 20.9626 25.7381 21.9625C25.7332 22.9624 25.3339 23.92 24.627 24.6271C23.92 25.3342 22.9626 25.7338 21.9628 25.7389C20.963 25.744 20.0015 25.3542 19.2874 24.6544L19.1009 24.469C18.9993 24.3673 18.8614 24.3102 18.7177 24.3102C18.5739 24.3102 18.4361 24.3673 18.3344 24.469L18.1479 24.6533C17.4363 25.3647 16.4713 25.7644 15.4651 25.7644C14.4589 25.7644 13.4938 25.3647 12.7822 24.6533L12.5958 24.469C12.4941 24.3673 12.3562 24.3102 12.2125 24.3102C12.0687 24.3102 11.9309 24.3673 11.8292 24.469L11.6427 24.6533C10.9271 25.3446 9.96851 25.7271 8.97355 25.7184C7.9786 25.7098 7.02684 25.3107 6.32328 24.6071C5.61971 23.9034 5.22063 22.9516 5.21198 21.9566C5.20334 20.9616 5.58582 20.0029 6.27705 19.2872L6.46245 19.1018C6.56408 19.0001 6.62117 18.8623 6.62117 18.7185C6.62117 18.5747 6.56408 18.4369 6.46245 18.3352L6.27814 18.1487C5.92573 17.7963 5.64618 17.3779 5.45545 16.9175C5.26473 16.457 5.16656 15.9635 5.16656 15.4651C5.16656 14.9667 5.26473 14.4732 5.45545 14.0128C5.64618 13.5523 5.92573 13.134 6.27814 12.7816L6.46245 12.5961C6.51293 12.5458 6.55299 12.486 6.58032 12.4201C6.60764 12.3542 6.62171 12.2836 6.62171 12.2123C6.62171 12.141 6.60764 12.0704 6.58032 12.0045C6.55299 11.9387 6.51293 11.8788 6.46245 11.8285L6.27814 11.6431C5.92573 11.2907 5.64618 10.8723 5.45545 10.4119C5.26473 9.9514 5.16656 9.45789 5.16656 8.95949C5.16656 8.4611 5.26473 7.96759 5.45545 7.50714C5.64618 7.04668 5.92464 6.6294 6.27705 6.277Z" fill="#A8ACB5"/>
<path d="M24.6531 6.277C24.3007 5.92456 23.8823 5.64499 23.4219 5.45425C22.9615 5.26352 22.468 5.16534 21.9697 5.16534C21.4713 5.16534 20.9778 5.26352 20.5174 5.45425C20.057 5.64499 19.6387 5.92456 19.2863 6.277L19.1009 6.46241C18.9992 6.56404 18.8614 6.62114 18.7176 6.62114C18.5739 6.62114 18.436 6.56404 18.3344 6.46241L18.1479 6.27808C17.606 5.73615 16.9127 5.37099 16.1593 5.23068C15.4059 5.09036 14.6277 5.18146 13.9271 5.49198C14.2264 6.25129 14.3801 7.06014 14.3803 7.8763C14.3803 8.84348 14.1689 9.76077 13.7894 10.5859L18.175 10.5859C18.7501 10.5859 19.3016 10.8144 19.7083 11.2211C20.1149 11.6277 20.3434 12.1793 20.3434 12.7545L20.3445 18.1758C20.3445 18.4606 20.2873 18.7426 20.1783 19.0057C20.0693 19.2688 19.9108 19.5079 19.7094 19.7092C19.508 19.9106 19.2679 20.0703 19.0048 20.1793C18.7417 20.2883 18.4609 20.3444 18.1761 20.3444L12.7551 20.3444C12.18 20.3444 11.6285 20.1159 11.2218 19.7092C10.8152 19.3025 10.5867 18.751 10.5867 18.1758L10.5856 13.7889C9.78982 14.155 8.92811 14.356 8.05249 14.3799C7.17686 14.4037 6.30549 14.2499 5.49096 13.9276C5.18046 14.6283 5.08936 15.4066 5.22967 16.16C5.36998 16.9135 5.73624 17.6068 6.27814 18.1487L6.46245 18.3352C6.56408 18.4369 6.62117 18.5747 6.62117 18.7185C6.62117 18.8623 6.56408 19.0001 6.46245 19.1018L6.27705 19.2872C5.57709 20.0012 5.18714 20.9626 5.19204 21.9625C5.19693 22.9625 5.59624 23.92 6.30316 24.6271C7.01008 25.3342 7.9675 25.7338 8.96732 25.7389C9.96715 25.744 10.9286 25.3531 11.6427 24.6533L11.8292 24.469C11.9309 24.3673 12.0687 24.3102 12.2125 24.3102C12.3562 24.3102 12.4941 24.3673 12.5958 24.469L12.7822 24.6533C13.4938 25.3647 14.4589 25.7644 15.4651 25.7644C16.4713 25.7644 17.4363 25.3647 18.1479 24.6533L18.3344 24.469C18.4361 24.3673 18.5739 24.3102 18.7177 24.3102C18.8614 24.3102 18.9993 24.3673 19.1009 24.469L19.2874 24.6544C20.0031 25.3456 20.9616 25.7271 21.9566 25.7184C22.9515 25.7098 23.9033 25.3107 24.6068 24.6071C25.3104 23.9034 25.7095 22.9516 25.7181 21.9566C25.7268 20.9616 25.3443 20.0029 24.6531 19.2872L24.4688 19.1018C24.3672 19.0001 24.3101 18.8623 24.3101 18.7185C24.3101 18.5747 24.3672 18.4369 24.4688 18.3352L24.6531 18.1487C25.0055 17.7963 25.2839 17.3779 25.4747 16.9175C25.6654 16.457 25.7635 15.9635 25.7635 15.4651C25.7635 14.9667 25.6654 14.4732 25.4747 14.0128C25.2839 13.5523 25.0044 13.134 24.652 12.7816L24.4677 12.5961C24.4172 12.5458 24.3771 12.486 24.3498 12.4201C24.3225 12.3542 24.3084 12.2836 24.3084 12.2123C24.3084 12.141 24.3225 12.0704 24.3498 12.0045C24.3771 11.9387 24.4172 11.8788 24.4677 11.8285L24.652 11.6431C25.0044 11.2907 25.2839 10.8723 25.4747 10.4119C25.6654 9.9514 25.7635 9.45789 25.7635 8.95949C25.7635 8.4611 25.6654 7.96759 25.4747 7.50713C25.2839 7.04668 25.0055 6.6294 24.6531 6.277Z" fill="#A8ACB5"/>
</svg>
