<svg width="31" height="31" viewBox="0 0 31 31" fill="none" xmlns="http://www.w3.org/2000/svg">
<path d="M24.135 6.85471C21.8812 4.60092 18.1249 4.60092 15.8711 6.85471L9.95484 12.7709C9.01576 13.71 8.45231 15.0247 8.45231 16.4333L8.45231 21.2227L5.44725 24.2277C5.07162 24.6034 5.07162 25.2607 5.44725 25.6363C5.63507 25.7303 5.91679 25.8242 6.10461 25.8242C6.29243 25.8242 6.57415 25.7303 6.76197 25.5424L15.6832 16.9029C16.0589 16.5273 16.7162 16.5273 17.0919 16.9029C17.4675 17.2785 17.4675 17.9359 17.0919 18.3115L14.7442 20.6592L13.8051 21.5983L12.866 22.5374L14.5563 22.5374C15.8711 22.5374 17.2797 21.9739 18.2188 21.0348L24.135 15.1186C25.2619 14.0856 25.8253 12.5831 25.8253 10.9867C25.8253 9.39023 25.2619 7.98161 24.135 6.85471Z" fill="#A8ACB5"/>
</svg>
