<svg width="55" height="56" viewBox="0 0 55 56" fill="none" xmlns="http://www.w3.org/2000/svg">
<path d="M44.877 0C46.2079 -5.81784e-08 47.5262 0.262086 48.7559 0.771484C49.9854 1.28087 51.1029 2.02756 52.0439 2.96875C52.9851 3.90992 53.7289 5.02513 54.2383 6.25488C54.7476 7.48454 55.0098 8.80282 55.0098 10.1338C55.0097 11.4648 54.7476 12.7831 54.2383 14.0127C53.7289 15.2423 52.9822 16.3597 52.041 17.3008L51.5488 17.7959C51.4141 17.9303 51.3074 18.0899 51.2344 18.2656C51.1614 18.4415 51.123 18.6308 51.123 18.8213C51.1231 19.0116 51.1614 19.2002 51.2344 19.376C51.3073 19.5517 51.4141 19.7113 51.5488 19.8457L52.041 20.3408C52.9822 21.282 53.7289 22.4001 54.2383 23.6299C54.7476 24.8595 55.0098 26.1778 55.0098 27.5088C55.0097 28.8397 54.7476 30.1581 54.2383 31.3877C53.7402 32.5899 53.018 33.6845 52.1064 34.6123C52.0857 34.6334 52.0649 34.6549 52.0439 34.6758L51.5518 35.1738C51.2804 35.4453 51.1279 35.8134 51.1279 36.1973C51.1279 36.5811 51.2804 36.9492 51.5518 37.2207L52.0439 37.7158C53.9134 39.6228 54.9545 42.1908 54.9414 44.8613C54.9283 47.5318 53.8616 50.089 51.9736 51.9775C50.0856 53.866 47.5286 54.9336 44.8584 54.9473C42.1884 54.9608 39.6209 53.9197 37.7139 52.0508L37.2158 51.5557C36.9444 51.2843 36.5761 51.132 36.1924 51.1318C35.8085 51.1318 35.4395 51.2842 35.168 51.5557L34.6699 52.0479C32.7694 53.9478 30.1921 55.0146 27.5049 55.0146C24.8177 55.0146 22.2403 53.9478 20.3398 52.0479L19.8418 51.5557C19.5703 51.2843 19.2022 51.1319 18.8184 51.1318C18.4345 51.1318 18.0664 51.2842 17.7949 51.5557L17.2969 52.0479C15.3897 53.917 12.8216 54.9608 10.1514 54.9473C7.48108 54.9336 4.92415 53.8661 3.03613 51.9775C1.14812 50.089 0.0814402 47.5318 0.0683594 44.8613C0.0552811 42.1908 1.0964 39.6228 2.96582 37.7158L3.46094 37.2207C3.73236 36.9492 3.88477 36.5812 3.88477 36.1973C3.88475 35.8134 3.73235 35.4453 3.46094 35.1738L2.96875 34.6758C2.85111 34.5581 2.73647 34.4375 2.625 34.3145C1.84473 33.4534 1.21716 32.4636 0.771484 31.3877C0.262156 30.1581 5.18762e-05 28.8397 0 27.5088C-5.81763e-08 26.1779 0.262229 24.8595 0.771484 23.6299C1.28086 22.4001 2.02755 21.282 2.96875 20.3408L3.46094 19.8457C3.59577 19.7112 3.70338 19.5519 3.77637 19.376C3.84931 19.2002 3.88667 19.0116 3.88672 18.8213C3.88672 18.6308 3.84936 18.4415 3.77637 18.2656C3.70338 18.0898 3.59571 17.9303 3.46094 17.7959L2.96875 17.3008C2.02763 16.3597 1.28085 15.2423 0.771484 14.0127C0.262149 12.7831 4.46147e-05 11.4648 0 10.1338C-5.81771e-08 8.80285 0.262216 7.48452 0.771484 6.25488C1.28086 5.02513 2.02462 3.90992 2.96582 2.96875C3.90688 2.02754 5.02432 1.28089 6.25391 0.771484C7.48357 0.262069 8.80182 5.81795e-08 10.1328 0C11.4638 2.0857e-07 12.7821 0.262069 14.0117 0.771484C15.2413 1.28089 16.3587 2.02754 17.2998 2.96875L17.7949 3.46484C18.0664 3.73604 18.4346 3.88867 18.8184 3.88867C19.2021 3.88863 19.5703 3.7361 19.8418 3.46484L20.3398 2.97168C21.787 1.5245 23.6385 0.549586 25.6504 0.174805C26.2649 0.0603645 26.8858 0.00300798 27.5049 0.00292969C28.124 0.00300096 28.7449 0.0603575 29.3594 0.174805C31.3713 0.549545 33.2228 1.52451 34.6699 2.97168L35.168 3.46484C35.4394 3.73611 35.8077 3.88857 36.1914 3.88867C36.5753 3.88867 36.9443 3.73627 37.2158 3.46484L37.7109 2.96875C38.652 2.02768 39.7695 1.28082 40.999 0.771484C42.2285 0.262236 43.5462 3.05947e-05 44.877 0ZM18.0098 11.0078C14.1438 11.0078 11.0098 14.1418 11.0098 18.0078V37.0078C11.0098 40.8738 14.1438 44.0078 18.0098 44.0078H37.0098C40.8758 44.0078 44.0098 40.8738 44.0098 37.0078V18.0078C44.0098 14.1418 40.8758 11.0078 37.0098 11.0078H18.0098Z" fill="#E9E9E9"/>
</svg>
